<svg xmlns="http://www.w3.org/2000/svg" fill="#AD85A2"  viewBox="0 0 48 48"><title>22-cat food</title><g id="_22-cat_food" data-name="22-cat food"><rect x="4" y="7" width="22" height="2"/><path d="M13,48H5a5.006,5.006,0,0,1-5-5V7a1,1,0,0,1,.293-.707l6-6A1,1,0,0,1,7,0H27a1,1,0,0,1,.707.293l6,6A1,1,0,0,1,34,7v9H32V7.414L26.586,2H7.414L2,7.414V43a3,3,0,0,0,3,3h8Z"/><rect x="28" y="7" width="2" height="2"/><path d="M32,44a8.993,8.993,0,0,1-7.787-4.5,8.849,8.849,0,0,1-1.145-3.368A9,9,0,1,1,41,35a9.192,9.192,0,0,1-.066,1.12,8.9,8.9,0,0,1-1.153,3.388A8.989,8.989,0,0,1,32,44Zm0-16a6.828,6.828,0,0,0-2.872.618A7,7,0,0,0,25,35a7.121,7.121,0,0,0,.053.88,6.866,6.866,0,0,0,.888,2.612,6.987,6.987,0,0,0,12.112.011,6.915,6.915,0,0,0,.9-2.632A7.269,7.269,0,0,0,39,35a7,7,0,0,0-4.12-6.378A6.833,6.833,0,0,0,32,28Z"/><path d="M41,35H39V25.414l-3.293,3.293-1.414-1.414,5-5A1,1,0,0,1,41,23Z"/><path d="M25,35H23V23a1,1,0,0,1,1.707-.707l5,5-1.414,1.414L25,25.414Z"/><polygon points="28 37 24.06 37 24 35 28 35 28 37"/><polygon points="29 40 25.08 40 25 38 29 38 29 40"/><polygon points="40 37 36 37 36 35 39.94 35 40 37"/><polygon points="39 40 35 40 35 38 38.92 38 39 40"/><rect x="31" y="27" width="2" height="5"/><rect x="30" y="29" width="4" height="2"/><path d="M45,48H17a1,1,0,0,1-.813-.419l-10-14a.994.994,0,0,1,0-1.162l10-14A1,1,0,0,1,17,18H45a3,3,0,0,1,3,3V45A3,3,0,0,1,45,48ZM17.515,46H45a1,1,0,0,0,1-1V21a1,1,0,0,0-1-1H17.515L8.229,33Z"/></g></svg>