<svg xmlns="http://www.w3.org/2000/svg" xmlns:xlink="http://www.w3.org/1999/xlink" viewBox="0 0 1005.81 610.28"><defs><style>.cls-1,.cls-14,.cls-5{fill:none;}.cls-2{isolation:isolate;}.cls-3{clip-path:url(#clip-path);}.cls-4{fill:#fff;}.cls-5{stroke:#dbced1;stroke-width:4px;}.cls-14,.cls-5{stroke-miterlimit:10;}.cls-6{fill:#dbced1;}.cls-7{fill:#f2d9db;}.cls-8{fill:#d4bec1;}.cls-9{fill:#eb7cb5;}.cls-10{fill:#ff90cb;}.cls-11{fill:#6e4858;}.cls-12{clip-path:url(#clip-path-2);}.cls-13{fill:#ad85a2;}.cls-14{stroke:#6e4858;}.cls-15{fill:#eac1c4;}.cls-16{fill:#98708d;}.cls-17{fill:#0cf;}.cls-18,.cls-23{fill:#f2999e;}.cls-19{fill:#25a5d3;}.cls-20{fill:#268db2;}.cls-21{fill:#ffabaf;}.cls-22{fill:#45c491;}.cls-23,.cls-24{opacity:0.4;mix-blend-mode:multiply;}.cls-25{fill:#fbfbfb;}.cls-26{fill:#eae1e3;}.cls-27{fill:#e8b469;}.cls-28{fill:#efd99a;}</style><clipPath id="clip-path" transform="translate(10.5 18.59)"><path class="cls-1" d="M90.46,547.2s-25.11-17.87-8.39-77.87-74.72-115.8,8.39-201.2S197.7,178.41,217.13,77.07,424.86-25.14,517.66,71.3s157.72-21.44,263.8,0,164.81,130.84,153,232.56S914.88,499.14,878,536.67,90.46,547.2,90.46,547.2Z"/></clipPath><clipPath id="clip-path-2" transform="translate(10.5 18.59)"><ellipse class="cls-1" cx="499.81" cy="540.23" rx="461.5" ry="33.82"/></clipPath></defs><g class="cls-2"><g id="Capa_2" data-name="Capa 2"><g id="Object"><g id="Background"><g class="cls-3"><path class="cls-4" d="M90.46,547.2s-25.11-17.87-8.39-77.87-74.72-115.8,8.39-201.2S197.7,178.41,217.13,77.07,424.86-25.14,517.66,71.3s157.72-21.44,263.8,0,164.81,130.84,153,232.56S914.88,499.14,878,536.67,90.46,547.2,90.46,547.2Z" transform="translate(10.5 18.59)"/><line class="cls-5" x1="167.25" y1="58.75" x2="167.25" y2="592.64"/><line class="cls-5" x1="296.32" x2="296.32" y2="592.64"/><line class="cls-5" x1="981.88" y1="296.32" y2="296.32"/><line class="cls-5" x1="981.88" y1="166.35" y2="166.35"/><line class="cls-5" x1="981.88" y1="413.4" y2="413.4"/><line class="cls-5" x1="981.88" y1="520.72" y2="520.72"/><line class="cls-5" x1="422.41" x2="422.41" y2="592.64"/><line class="cls-5" x1="548.5" x2="548.5" y2="592.64"/><line class="cls-5" x1="674.6" x2="674.6" y2="592.64"/><line class="cls-5" x1="800.69" x2="800.69" y2="592.64"/></g><path class="cls-4" d="M551.31,57.3s25.39,60.5,78.87,31.31a24.47,24.47,0,0,0,13-19.88c1.05-18.59-20.43-19.46-49.47-24.84C560.81,37.8,549.81,43.3,551.31,57.3Z" transform="translate(10.5 18.59)"/><rect class="cls-6" x="735.05" y="232.7" width="161.52" height="100.95" rx="27.63"/><rect class="cls-4" x="750.81" y="230.54" width="147.76" height="92.35" rx="25.28"/><path class="cls-7" d="M820.7,257.5a55.94,55.94,0,0,1-8.83-13,8.4,8.4,0,0,0-.77-1.63h0a8,8,0,1,0-6.79,12.22,7.88,7.88,0,0,0,1.2-.1c2.83,2.22,8,5.6,13.74,5.66A1.91,1.91,0,0,0,820.7,257.5Z" transform="translate(10.5 18.59)"/><path class="cls-7" d="M752.81,257.5a55.94,55.94,0,0,0,8.83-13,7.85,7.85,0,0,1,.77-1.63h0a8,8,0,1,1,6.79,12.22A8.12,8.12,0,0,1,768,255c-2.82,2.22-8,5.6-13.74,5.66A1.9,1.9,0,0,1,752.81,257.5Z" transform="translate(10.5 18.59)"/><path class="cls-7" d="M802.15,266.3a18,18,0,1,0-29.68,0h0l.06.07a19.16,19.16,0,0,0,2.08,2.5l9,16.75a4.88,4.88,0,0,0,7.5,0l9-16.75a19.16,19.16,0,0,0,2.08-2.5l0-.07Z" transform="translate(10.5 18.59)"/><path class="cls-4" d="M783.31,260.12a1,1,0,0,1-1-1,3,3,0,1,0-6,0,1,1,0,0,1-2,0,5,5,0,1,1,10,0A1,1,0,0,1,783.31,260.12Z" transform="translate(10.5 18.59)"/><path class="cls-4" d="M798.31,260.12a1,1,0,0,1-1-1,3,3,0,1,0-6,0,1,1,0,0,1-2,0,5,5,0,1,1,10,0A1,1,0,0,1,798.31,260.12Z" transform="translate(10.5 18.59)"/><path class="cls-4" d="M788.21,274.12h1.64a1.47,1.47,0,0,1,1.47,1.47v4a1.51,1.51,0,0,1-1.51,1.51h-4a1.47,1.47,0,0,1-1.47-1.47V278a3.9,3.9,0,0,1,3.9-3.9Z" transform="translate(437.55 -457.16) rotate(45)"/><circle class="cls-7" cx="875.81" cy="270.89" r="14"/><rect class="cls-7" x="846.81" y="262.89" width="25" height="17"/><polygon class="cls-7" points="894.48 300.89 879.48 300.89 872.81 275.89 887.81 275.89 894.48 300.89"/><rect class="cls-4" x="872.81" y="264.89" width="11" height="3" rx="1.5"/><rect class="cls-4" x="872.81" y="268.89" width="11" height="3" rx="1.5"/><ellipse class="cls-8" cx="846.81" cy="271.39" rx="2" ry="8.5"/><rect class="cls-6" x="573.31" y="154.14" width="110.34" height="127.2"/><rect class="cls-4" x="583.48" y="153.89" width="101" height="118"/><rect class="cls-7" x="599.48" y="175.89" width="70" height="27"/><rect class="cls-7" x="599.48" y="223.89" width="70" height="27"/><circle class="cls-4" cx="634.48" cy="237.89" r="6"/><circle class="cls-4" cx="634.48" cy="188.89" r="6"/><polygon class="cls-9" points="456.6 120.77 428.72 120.77 428.72 92.89 399.97 92.89 399.97 120.77 372.1 120.77 372.1 149.52 399.97 149.52 399.97 177.39 428.72 177.39 428.72 149.52 456.6 149.52 456.6 120.77"/><polygon class="cls-9" points="336.06 82.9 326.06 82.9 326.06 72.89 315.74 72.89 315.74 82.9 305.73 82.9 305.73 93.22 315.74 93.22 315.74 103.22 326.06 103.22 326.06 93.22 336.06 93.22 336.06 82.9"/><polygon class="cls-9" points="343.01 139.14 325.08 121.48 332.8 113.64 341.94 122.65 364.48 93.84 373.14 100.61 343.01 139.14"/><path class="cls-10" d="M420.64,184l3.49-.88a.67.67,0,0,0,0-1.29l-3.49-.88a.65.65,0,0,1-.48-.48l-.88-3.49a.67.67,0,0,0-1.29,0l-.88,3.49a.65.65,0,0,1-.48.48l-3.49.88a.67.67,0,0,0,0,1.29l3.49.88a.65.65,0,0,1,.48.48l.88,3.49a.67.67,0,0,0,1.29,0l.88-3.49A.65.65,0,0,1,420.64,184Z" transform="translate(10.5 18.59)"/><path class="cls-10" d="M315.83,44.84,318,44.3a.42.42,0,0,0,0-.81l-2.16-.55a.41.41,0,0,1-.31-.3L315,40.47a.42.42,0,0,0-.81,0l-.54,2.17a.4.4,0,0,1-.3.3l-2.17.55a.42.42,0,0,0,0,.81l2.17.54a.41.41,0,0,1,.3.3l.54,2.17a.42.42,0,0,0,.81,0l.54-2.17A.43.43,0,0,1,315.83,44.84Z" transform="translate(10.5 18.59)"/><path class="cls-10" d="M293.64,46.05l4.95-1.24a1,1,0,0,0,0-1.84l-4.95-1.24A1,1,0,0,1,293,41l-1.24-4.95a1,1,0,0,0-1.85,0L288.62,41a1,1,0,0,1-.69.69L283,43a1,1,0,0,0,0,1.84l4.95,1.24a1,1,0,0,1,.69.69l1.24,5a1,1,0,0,0,1.85,0l1.24-5A1,1,0,0,1,293.64,46.05Z" transform="translate(10.5 18.59)"/><path class="cls-10" d="M448.9,173l10.17-2.55a2,2,0,0,0,0-3.78l-10.17-2.55a1.93,1.93,0,0,1-1.42-1.42l-2.54-10.16a2,2,0,0,0-3.79,0l-2.54,10.16a2,2,0,0,1-1.42,1.42L427,166.66a2,2,0,0,0,0,3.78L437.19,173a2,2,0,0,1,1.42,1.42l2.54,10.16a2,2,0,0,0,3.79,0l2.54-10.16A1.93,1.93,0,0,1,448.9,173Z" transform="translate(10.5 18.59)"/><path class="cls-10" d="M292.45,116.15l2.88-.72a.56.56,0,0,0,0-1.08l-2.88-.72a.56.56,0,0,1-.41-.4l-.72-2.89a.55.55,0,0,0-1.07,0l-.72,2.89a.56.56,0,0,1-.41.4l-2.88.72a.56.56,0,0,0,0,1.08l2.88.72a.57.57,0,0,1,.41.4l.72,2.89a.55.55,0,0,0,1.07,0l.72-2.89A.57.57,0,0,1,292.45,116.15Z" transform="translate(10.5 18.59)"/></g><g id="Ground"><ellipse class="cls-11" cx="707.81" cy="574.16" rx="298.01" ry="28.07"/><ellipse class="cls-11" cx="320.27" cy="578.02" rx="309.77" ry="32.26"/><g class="cls-12"><ellipse class="cls-13" cx="510.31" cy="558.82" rx="461.5" ry="33.82"/><line class="cls-14" x1="22.81" y1="557.27" x2="917.86" y2="532.84"/><line class="cls-14" x1="88.6" y1="579.46" x2="983.81" y2="565.7"/><line class="cls-14" x1="102.81" y1="535.83" x2="314.81" y2="596.89"/><line class="cls-14" x1="240.1" y1="515.9" x2="492.51" y2="606.89"/><line class="cls-14" x1="484.01" y1="520.72" x2="717.06" y2="596.89"/><line class="cls-14" x1="602.23" y1="528.81" x2="888.34" y2="592.64"/><line class="cls-14" x1="785.79" y1="522.91" x2="967.81" y2="577.39"/></g></g><g id="Shower"><polygon class="cls-11" points="370.62 526.59 472.01 577.39 541.06 577.39 431.71 525 370.62 526.59"/><rect class="cls-10" x="480.03" y="431.73" width="33" height="138"/><rect class="cls-4" x="476.01" y="431.73" width="33" height="138"/><polygon class="cls-15" points="476.01 569.73 387.01 530.73 387.01 431.73 476.01 431.73 476.01 569.73"/><path class="cls-7" d="M400.86,507.29l-17.35-5.05a2.88,2.88,0,0,1-2-2.58v-4.39a1.45,1.45,0,0,1,2-1.42l17.35,5a2.88,2.88,0,0,1,2,2.58v4.39A1.46,1.46,0,0,1,400.86,507.29Z" transform="translate(10.5 18.59)"/><path class="cls-7" d="M424.51,514.16l-17.35-5a2.9,2.9,0,0,1-2-2.59v-4.38a1.46,1.46,0,0,1,2-1.42l17.35,5a2.89,2.89,0,0,1,2,2.58v4.39A1.45,1.45,0,0,1,424.51,514.16Z" transform="translate(10.5 18.59)"/><path class="cls-7" d="M413.07,521.51l-17.35-5a2.89,2.89,0,0,1-2-2.59V509.5a1.46,1.46,0,0,1,2-1.42l17.35,5a2.89,2.89,0,0,1,2,2.59v4.38A1.45,1.45,0,0,1,413.07,521.51Z" transform="translate(10.5 18.59)"/><path class="cls-7" d="M397.44,430.31l-16.08-2.07a2.17,2.17,0,0,1-1.85-2.09v-4.07a1.59,1.59,0,0,1,1.85-1.61l16.08,2.07a2.17,2.17,0,0,1,1.86,2.09v4.06A1.6,1.6,0,0,1,397.44,430.31Z" transform="translate(10.5 18.59)"/><path class="cls-7" d="M419.35,433.13l-16.08-2.07a2.17,2.17,0,0,1-1.85-2.09V424.9a1.59,1.59,0,0,1,1.85-1.61l16.08,2.06a2.18,2.18,0,0,1,1.85,2.1v4.06A1.59,1.59,0,0,1,419.35,433.13Z" transform="translate(10.5 18.59)"/><path class="cls-7" d="M408.75,441.66l-16.08-2.07a2.17,2.17,0,0,1-1.85-2.09v-4.07a1.59,1.59,0,0,1,1.85-1.61l16.08,2.06a2.18,2.18,0,0,1,1.85,2.1V440A1.59,1.59,0,0,1,408.75,441.66Z" transform="translate(10.5 18.59)"/><path class="cls-7" d="M430.65,444.48l-16.07-2.07a2.17,2.17,0,0,1-1.86-2.1v-4.06a1.6,1.6,0,0,1,1.86-1.62l16.07,2.07a2.17,2.17,0,0,1,1.86,2.1v4.06A1.6,1.6,0,0,1,430.65,444.48Z" transform="translate(10.5 18.59)"/><path class="cls-7" d="M423.79,481.34l-17.29-4.11a2.68,2.68,0,0,1-2-2.47v-4.37a1.52,1.52,0,0,1,2-1.52L423.79,473a2.68,2.68,0,0,1,2,2.47v4.37A1.53,1.53,0,0,1,423.79,481.34Z" transform="translate(10.5 18.59)"/><path class="cls-7" d="M447.35,486.93l-17.29-4.1a2.68,2.68,0,0,1-2-2.47V476a1.52,1.52,0,0,1,2-1.52l17.29,4.1a2.69,2.69,0,0,1,2,2.47v4.37A1.52,1.52,0,0,1,447.35,486.93Z" transform="translate(10.5 18.59)"/><path class="cls-7" d="M436,494.87l-17.29-4.11a2.68,2.68,0,0,1-2-2.47v-4.37a1.52,1.52,0,0,1,2-1.52L436,486.51a2.67,2.67,0,0,1,2,2.47v4.37A1.53,1.53,0,0,1,436,494.87Z" transform="translate(10.5 18.59)"/><path class="cls-7" d="M459.51,500.46l-17.29-4.1a2.69,2.69,0,0,1-2-2.47v-4.37a1.52,1.52,0,0,1,2-1.52l17.29,4.1a2.68,2.68,0,0,1,2,2.47v4.37A1.53,1.53,0,0,1,459.51,500.46Z" transform="translate(10.5 18.59)"/><rect class="cls-16" x="400.01" y="245.73" width="82" height="178"/><rect class="cls-13" x="481.01" y="245.73" width="3" height="178"/><rect class="cls-13" x="464.01" y="245.73" width="2" height="178"/><rect class="cls-13" x="445.01" y="245.73" width="2" height="178"/><rect class="cls-13" x="426.01" y="245.73" width="2" height="178"/><rect class="cls-13" x="407.01" y="245.73" width="2" height="178"/><rect class="cls-15" x="390.01" y="236.73" width="111" height="15"/><rect class="cls-10" x="480.81" y="236.73" width="30" height="15"/><rect class="cls-4" x="476.01" y="236.73" width="30" height="15"/><circle class="cls-13" cx="301.81" cy="171.89" r="22"/><circle class="cls-16" cx="307.81" cy="171.89" r="22"/><path class="cls-17" d="M239.31,283.3a2.08,2.08,0,0,1-.68-.12,2,2,0,0,1-1.2-2.56l23-64a2,2,0,0,1,3.76,1.36l-23,64A2,2,0,0,1,239.31,283.3Z" transform="translate(10.5 18.59)"/><path class="cls-17" d="M266.31,267.3l-.3,0a2,2,0,0,1-1.68-2.28l7-46a2,2,0,1,1,4,.6l-7,46A2,2,0,0,1,266.31,267.3Z" transform="translate(10.5 18.59)"/><path class="cls-17" d="M262.31,290.3l-.37,0a2,2,0,0,1-1.6-2.34l3-16a2,2,0,1,1,3.94.74l-3,16A2,2,0,0,1,262.31,290.3Z" transform="translate(10.5 18.59)"/><path class="cls-17" d="M288.31,267.3h0a2,2,0,0,1-2-2l.25-42a2,2,0,0,1,2-2h0a2,2,0,0,1,2,2l-.25,42A2,2,0,0,1,288.31,267.3Z" transform="translate(10.5 18.59)"/><path class="cls-17" d="M288.31,278.3a2,2,0,0,1-2-2v-5a2,2,0,0,1,4,0v5A2,2,0,0,1,288.31,278.3Z" transform="translate(10.5 18.59)"/><path class="cls-17" d="M300.31,288.3a2,2,0,0,1-2-1.92l-2-53a2,2,0,1,1,4-.16l2,53a2,2,0,0,1-1.92,2.08Z" transform="translate(10.5 18.59)"/><path class="cls-17" d="M311.31,243.3a2,2,0,0,1-2-1.79l-2-19a2,2,0,1,1,4-.42l2,19a2,2,0,0,1-1.78,2.2Z" transform="translate(10.5 18.59)"/><path class="cls-17" d="M317.31,290.3a2,2,0,0,1-2-1.74l-5-38a2,2,0,1,1,4-.52l5,38a2,2,0,0,1-1.72,2.24Z" transform="translate(10.5 18.59)"/><path class="cls-17" d="M327.31,261.3a2,2,0,0,1-2-1.68l-5-31a2,2,0,0,1,3.94-.64l5,31a2,2,0,0,1-1.65,2.29Z" transform="translate(10.5 18.59)"/><path class="cls-17" d="M332.31,282.3a2,2,0,0,1-1.95-1.55l-3-13a2,2,0,1,1,3.9-.9l3,13a2,2,0,0,1-1.5,2.4A2.3,2.3,0,0,1,332.31,282.3Z" transform="translate(10.5 18.59)"/><path class="cls-17" d="M353.31,271.3a2,2,0,0,1-1.83-1.19l-23-52a2,2,0,0,1,3.66-1.62l23,52a2,2,0,0,1-1,2.64A1.93,1.93,0,0,1,353.31,271.3Z" transform="translate(10.5 18.59)"/><path class="cls-17" d="M348.71,291.83a2,2,0,0,1-1.7-1.37l-9.2-28.07a2,2,0,1,1,3.8-1.25l9.2,28.07a2,2,0,0,1-2.1,2.62Z" transform="translate(10.5 18.59)"/><path class="cls-10" d="M290.65,196.89H313a40.83,40.83,0,0,1,40.83,40.83v0a4.17,4.17,0,0,1-4.17,4.17H254a4.17,4.17,0,0,1-4.17-4.17v0a40.83,40.83,0,0,1,40.83-40.83Z"/><path class="cls-13" d="M297.65,196.89H320a40.83,40.83,0,0,1,40.83,40.83v0a4.17,4.17,0,0,1-4.17,4.17H261a4.17,4.17,0,0,1-4.17-4.17v0a40.83,40.83,0,0,1,40.83-40.83Z"/><path class="cls-16" d="M309.48,178.3H287.14c-.61,0-1.22,0-1.83,0a40.83,40.83,0,0,1,39,40.78h0a4.17,4.17,0,0,1-4.17,4.17h26a4.17,4.17,0,0,0,4.17-4.17h0A40.83,40.83,0,0,0,309.48,178.3Z" transform="translate(10.5 18.59)"/><rect class="cls-11" x="299.81" y="161.89" width="15" height="41" rx="7.08"/><ellipse class="cls-11" cx="306.81" cy="199.89" rx="18" ry="3"/><rect class="cls-8" x="260.81" y="233.89" width="10" height="5" rx="2.5"/><rect class="cls-8" x="272.81" y="233.89" width="43" height="5" rx="2.5"/></g><g id="Cleaner"><rect class="cls-18" x="859.54" y="485.89" width="22.45" height="6.52" rx="3.26" transform="translate(1267.46 1428.81) rotate(-142.07)"/><path class="cls-11" d="M884.56,376.86a52.84,52.84,0,0,0-32.39-4.69,79.4,79.4,0,0,1-47.78-7l-38.27-18.42,0,.06c-3.66-.89-11.32,8.55-17.43,21.64-5.77,12.34-8.16,23.66-5.87,26.77l-.12.25,34.87,16.78a78.55,78.55,0,0,1,36,36,1.86,1.86,0,0,0,.1.2,22.18,22.18,0,0,1-2.39,23.71L782,509a15.38,15.38,0,0,0,5.36,23.44l37.1,17.85a15.37,15.37,0,0,0,20.38-6.89l29.32-57.74A35.28,35.28,0,0,1,888,470.38a52.86,52.86,0,0,0,21.18-23.13C921.26,421.63,910,389.37,884.56,376.86Z" transform="translate(10.5 18.59)"/><path class="cls-11" d="M672,576l-5.86-3.84c.71-1.08,17.78-26.42,58.34-24.58,37.71,1.69,80.9-16.66,81.33-16.84l2.77,6.43c-1.82.78-45,19.18-84.42,17.41C687.57,552.91,672.14,575.74,672,576Z" transform="translate(10.5 18.59)"/><path class="cls-13" d="M877.89,372.2a52.84,52.84,0,0,0-32.39-4.7,79.29,79.29,0,0,1-47.77-7l-38.28-18.42,0,.06c-3.66-.89-11.31,8.56-17.43,21.64-5.76,12.35-8.16,23.66-5.87,26.78l-.12.24,34.87,16.78a78.5,78.5,0,0,1,36,36c0,.07.07.14.1.2a22.16,22.16,0,0,1-2.38,23.71l-29.34,36.8a15.38,15.38,0,0,0,5.36,23.44l37.1,17.86a15.39,15.39,0,0,0,20.38-6.9L867.45,481a35.26,35.26,0,0,1,13.84-15.27,52.83,52.83,0,0,0,21.18-23.12C914.59,417,903.33,384.71,877.89,372.2Z" transform="translate(10.5 18.59)"/><rect class="cls-16" x="857.69" y="429.29" width="31.58" height="8.38" rx="4.19" transform="translate(276.06 -310.36) rotate(25.04)"/><rect class="cls-16" x="862.05" y="419.95" width="31.58" height="8.38" rx="4.19" transform="translate(272.52 -313.08) rotate(25.04)"/><rect class="cls-16" x="853.32" y="438.64" width="31.58" height="8.38" rx="4.19" transform="translate(279.6 -307.63) rotate(25.04)"/><circle class="cls-16" cx="868.28" cy="491.51" r="5"/><circle class="cls-10" cx="867.31" cy="488.85" r="4"/><path class="cls-16" d="M785,510.05c-.26-19.92,55.46-45.47,29.8-85.05-21.75-33.54-66.1-35.64-79.13-35.49a4.16,4.16,0,0,0,.49,1.06l-.12.24,34.87,16.78a78.5,78.5,0,0,1,36,36c0,.07.07.14.1.2a22.16,22.16,0,0,1-2.38,23.71l-29.34,36.8a15.38,15.38,0,0,0,5.36,23.44l30.11,14.49h0S785.23,530,785,510.05Z" transform="translate(10.5 18.59)"/><path class="cls-10" d="M906,408.44c-3.48-15.27-13.42-29-28.08-36.24a52.84,52.84,0,0,0-32.39-4.7,79.29,79.29,0,0,1-47.77-7L763.62,344.1c13.28,12.43,41.93,34,82.31,36.23C880.89,382.23,898,397.16,906,408.44Z" transform="translate(10.5 18.59)"/><path class="cls-10" d="M835.07,384.27s44.13-3.12,67.53,24.19C902.6,408.46,876.32,387.72,835.07,384.27Z" transform="translate(10.5 18.59)"/><path class="cls-16" d="M821.73,465.6s-24.61,24.72-30.53,39c-6.46,15.6,16.23,33,16.23,33S779.93,513.74,821.73,465.6Z" transform="translate(10.5 18.59)"/><path class="cls-4" d="M844.91,555.88c-4,0-7.18,2.84-7.18,6.34H852.1C852.1,558.72,848.88,555.88,844.91,555.88Z" transform="translate(10.5 18.59)"/><path class="cls-4" d="M866.46,553.57c-4.39,0-7.94,2.84-7.94,6.33h15.87C874.39,556.41,870.84,553.57,866.46,553.57Z" transform="translate(10.5 18.59)"/><path class="cls-19" d="M847.32,559.05a5.31,5.31,0,0,1-.68,0,4.5,4.5,0,0,1-3.78-5.12l2.19-14.53a4.89,4.89,0,0,1,.24-.91l6.43-17.21a4.5,4.5,0,1,1,8.43,3.14l-6.27,16.78-2.12,14.07A4.49,4.49,0,0,1,847.32,559.05Z" transform="translate(10.5 18.59)"/><path class="cls-20" d="M868,557.68a4.5,4.5,0,0,1-4.19-2.86l-5.25-13.38a4.34,4.34,0,0,1-.31-1.75l.44-18.06a4.5,4.5,0,0,1,4.5-4.39h.11a4.5,4.5,0,0,1,4.39,4.61L867.22,539l4.92,12.53a4.51,4.51,0,0,1-2.55,5.83A4.35,4.35,0,0,1,868,557.68Z" transform="translate(10.5 18.59)"/><ellipse class="cls-19" cx="869.42" cy="544.16" rx="8.73" ry="8.72"/><polygon class="cls-20" points="857.4 577.61 856.9 577.57 858.41 559.93 864.45 543.37 864.92 543.54 858.89 560.07 857.4 577.61"/><rect class="cls-21" x="861.31" y="498.77" width="12.69" height="15.63" rx="6.34"/><rect class="cls-11" x="863.31" y="497.11" width="12.69" height="15.63" rx="6.34"/><rect class="cls-4" x="858.65" y="511.56" width="20.97" height="34.5" rx="10.48"/><rect class="cls-21" x="822.47" y="496.58" width="22.45" height="6.52" rx="3.26" transform="translate(239.31 -242.48) rotate(20.57)"/><rect class="cls-4" x="847.69" y="515.9" width="16.78" height="9.63" rx="4.82"/><rect class="cls-4" x="862.86" y="493.52" width="16.78" height="9.63" rx="4.82" transform="translate(-121.92 509.44) rotate(-29.34)"/><rect class="cls-22" x="852.19" y="517.14" width="6.08" height="1.67" rx="0.83"/><rect class="cls-22" x="867.93" y="494.59" width="6.08" height="1.67" rx="0.83" transform="translate(-120.3 492.16) rotate(-28.38)"/><rect class="cls-11" x="861.31" y="500.39" width="4.33" height="8.08" rx="2.17"/><path class="cls-11" d="M854.41,473.85h0a3.21,3.21,0,0,1,3.21,3.21v4.75a6,6,0,0,1-6,6h-.38a0,0,0,0,1,0,0v-10.8A3.21,3.21,0,0,1,854.41,473.85Z" transform="translate(1519.78 -230.2) rotate(102.54)"/><path class="cls-4" d="M859.18,478h-.38l-10.5-2.33-.08.37a6.32,6.32,0,0,0-.13,1l9.4,2.09.38,0a6.34,6.34,0,0,1,6.34,6.34v2.94a6.29,6.29,0,0,1-1.69,4.3,6.33,6.33,0,0,0,3-5.38v-2.94A6.34,6.34,0,0,0,859.18,478Z" transform="translate(10.5 18.59)"/><rect class="cls-16" x="849.58" y="478.79" width="3.41" height="1.06" rx="0.53" transform="translate(143.89 -164.71) rotate(13.33)"/><rect class="cls-21" x="862.83" y="504.43" width="1.92" height="4.96" rx="0.96"/><path class="cls-4" d="M760.91,425.76c-12.38-7.67-9.51-34.73,6.42-60.43q2.42-3.9,5-7.44A83.05,83.05,0,0,0,754.18,379c-13.45,21.71-15.88,44.56-5.42,51.05,4.87,3,11.66,1.95,18.89-2.23A13.88,13.88,0,0,1,760.91,425.76Z" transform="translate(10.5 18.59)"/><path class="cls-4" d="M787.9,350.17c-9.1-7.68-29.4,1.41-45.33,20.3-1.61,1.91-3.11,3.85-4.5,5.8a67.88,67.88,0,0,1,11.75-19.46c13.46-16,30.6-23.64,38.29-17.16,3.58,3,4.47,8.57,3.06,15.25A11.29,11.29,0,0,0,787.9,350.17Z" transform="translate(10.5 18.59)"/><path class="cls-4" d="M717.07,401.54c-6.28-3.13-5-18.4,2.84-34.11,3.86-7.74,8.6-14.14,13.17-18.26-5.92,3.09-13,11.24-18.31,22-7.84,15.71-9.11,31-2.83,34.11,3.18,1.59,7.69-.25,12.38-4.5C721.57,402.18,719.06,402.54,717.07,401.54Z" transform="translate(10.5 18.59)"/></g><g id="Dog"><ellipse class="cls-11" cx="652.65" cy="551.31" rx="133.17" ry="14.42"/><path class="cls-4" d="M578.05,341.37s-60,95.17-33.33,140c10.66,23.51,3.62,42.51-3.53,43.35,0,0,1.87-25.44,15.62-29.44,4.75-7.75,4.82-5.25,9.82-12.5s6.25,5.27,6.25,5.27,17.5,33.25,48.75,33.25S656.14,483,656.14,483s-7.76,45.35-8.51,52.6,21.43-13.77,21.43-13.77,9.57-.48,10.82-5.48,54.84-4,63.84-18.25-20.84-32.5-35.34-46.75-60.91-49.54-67.5-99.09Z" transform="translate(10.5 18.59)"/><path class="cls-18" d="M571,344.1s-60,95.17-33.34,140c10.67,23.51,3.62,42.51-3.52,43.35,0,0,11.44,7.83,25.19,3.83,4.75-7.75,1-13.25,6-20.5s.5-20,.5-20,17.5,33.25,48.75,33.25,37.5-23.25,37.5-23.25-10.75,30.25-11.5,37.5,32.25,0,32.25,0-1.25-14.25,0-19.25,54.83-4,63.83-18.25-20.83-32.5-35.33-46.75S640.4,404.51,633.81,355Z" transform="translate(10.5 18.59)"/><circle class="cls-4" cx="618.53" cy="343.03" r="44.33"/><circle class="cls-18" cx="613.81" cy="347.89" r="44.33"/><path class="cls-4" d="M565.09,298.8A8.13,8.13,0,0,0,553,304.12a44.34,44.34,0,0,1-65.91,28.18,44.33,44.33,0,1,0,82.59-30.37c-1.41-1.07-2.88-2.09-4.42-3Z" transform="translate(10.5 18.59)"/><path class="cls-4" d="M667.92,340.45l-41.14,24.22-7.41-42.12L681.55,310l.73,2.26A22.36,22.36,0,0,1,667.92,340.45Z" transform="translate(10.5 18.59)"/><path class="cls-18" d="M568.4,303.21a8.13,8.13,0,0,0-12.12,5.33,44.35,44.35,0,0,1-65.92,28.17A44.34,44.34,0,1,0,573,306.35a53.19,53.19,0,0,0-4.42-3.05Z" transform="translate(10.5 18.59)"/><path class="cls-18" d="M548.47,337.12c-.83-.63-1.7-1.24-2.61-1.8l-.08-.05a4.72,4.72,0,0,0-1.7-.64,26.18,26.18,0,0,1-36.54,33.6c-.23-.12-.45-.26-.68-.4a26.22,26.22,0,0,0,39.61-3.45A26.18,26.18,0,0,0,548.47,337.12Z" transform="translate(10.5 18.59)"/><path class="cls-18" d="M554.19,326.44c-.07-1-.18-2.09-.35-3.14l0-.1a4.68,4.68,0,0,0-.63-1.7,26.19,26.19,0,0,1-49.33-5.56c-.05-.26-.1-.52-.14-.78a26.19,26.19,0,0,0,50.47,11.28Z" transform="translate(10.5 18.59)"/><path class="cls-21" d="M556.22,313.24a6,6,0,0,0-9,3.74,30.87,30.87,0,0,1-4,9.83c-9.27,14.94-29.36,19.3-45.1,9.89A34.51,34.51,0,0,0,515,358.21c14.82,8.22,33.43,4.46,42.88-8.7a31.81,31.81,0,0,0,1.85-33.89c-1.08-.81-2.19-1.58-3.36-2.31Z" transform="translate(10.5 18.59)"/><path class="cls-11" d="M594.63,311.91c-4.81,3.63-7.16,8.85-5.94,12.53a13.23,13.23,0,0,1,5.29-8.75c5.37-4.05,12.46-3.71,15.84.76a7.43,7.43,0,0,1,.49.75,6.91,6.91,0,0,0-.7-6.34C606.88,307.25,600.18,307.72,594.63,311.91Z" transform="translate(10.5 18.59)"/><path class="cls-18" d="M634.08,356.81s-28,23.82-45.71,16.82c0,0,18.61,10.34,30.44,8.67,0,0-5.5,5.33-11.83,4.33,0,0,18.66,11.74,29,2.87,0,0,0,8.8-3.34,10.47,0,0,12.34-9.67,14-2.67s6,4.7,6,4.7S634.18,362.32,634.08,356.81Z" transform="translate(10.5 18.59)"/><path class="cls-23" d="M634.08,356.81s-28,23.82-45.71,16.82c0,0,18.61,10.34,30.44,8.67,0,0-5.5,5.33-11.83,4.33,0,0,18.66,11.74,29,2.87,0,0,0,8.8-3.34,10.47,0,0,12.34-9.67,14-2.67s6,4.7,6,4.7S634.18,362.32,634.08,356.81Z" transform="translate(10.5 18.59)"/><path class="cls-11" d="M627.63,303c-3,2.3-4.54,5.61-3.76,7.94a8.32,8.32,0,0,1,3.35-5.54c3.4-2.57,7.89-2.36,10,.48a4.87,4.87,0,0,1,.32.47,4.37,4.37,0,0,0-.45-4C635.4,300.05,631.15,300.35,627.63,303Z" transform="translate(10.5 18.59)"/><path class="cls-18" d="M664.81,344.46,619.37,367l-.56-44.37,59.62-8.58.73,2.26A22.34,22.34,0,0,1,664.81,344.46Z" transform="translate(10.5 18.59)"/><path class="cls-21" d="M657.79,326.28l-24.06,5.5a11.74,11.74,0,0,1-13.56-7.19l-.8-2,58.55-8.5.16.69C678.91,318.36,669.82,323.53,657.79,326.28Z" transform="translate(10.5 18.59)"/><path class="cls-11" d="M673.28,312.35H677a4.54,4.54,0,0,1,4.54,4.54v6.29a2.08,2.08,0,0,1-2.08,2.08h0a8.92,8.92,0,0,1-8.92-8.92V315.1A2.75,2.75,0,0,1,673.28,312.35Z" transform="translate(-43.8 178.44) rotate(-12.97)"/><path class="cls-16" d="M675.8,312.41h2.27a2.78,2.78,0,0,1,2.78,2.78V319a1.28,1.28,0,0,1-1.28,1.28h0a5.46,5.46,0,0,1-5.46-5.46v-.77a1.69,1.69,0,0,1,1.69-1.69Z" transform="translate(-43.22 178.71) rotate(-12.97)"/><path class="cls-18" d="M738.12,480.17c-13.56,2.39-15.56,2.88-15.56,2.88h-5.25s18.14,5.12,18.32,4.94-30.32,9.18-47.32-7.13l10.25,14.94s-16,7-31.5-7.48c0,0,5.5,11.13,10,13.8l4.5,2.68s-11.5,6.86-20.75,2.14c0,0,7.33,9.84,10.5,9.91,0,0-10,8.2-19.5,4.2,0,0,8,12.48,37.75,13.24,0,0-5.75,4.76-9.75,4.38,0,0,29.25-.85,35.25-1.11s31-2.76,35.75-16v8.5s7.5-7,6.5-20.61c0,0,4.25,6.86,3.75,10.11,0,0,2.25-23.33-6.75-29.67S741.11,479.65,738.12,480.17Z" transform="translate(10.5 18.59)"/><path class="cls-18" d="M534.12,426.63s18.86,24.94,16.19,39,.26,17.32.26,17.32-11.26-7.5-9.26-17.12c0,0-2.25,8.25-.5,11.37,0,0-2.5-2.12-2.5-3.37,0,0-.13,12.37,7.5,18,0,0-11.75.16-15-11.67a8.79,8.79,0,0,0,.58,6.34s-4.83-10.67-4.46-20.42c0,0-2.25,3-1.62,5.75,0,0,.5-15.38,2.37-23.13s-2.48-3.5-2.48-3.5S527.18,430.47,534.12,426.63Z" transform="translate(10.5 18.59)"/><path class="cls-23" d="M738.12,480.17c-13.56,2.39-15.56,2.88-15.56,2.88h-5.25s18.14,5.12,18.32,4.94-30.32,9.18-47.32-7.13l10.25,14.94s-16,7-31.5-7.48c0,0,5.5,11.13,10,13.8l4.5,2.68s-11.5,6.86-20.75,2.14c0,0,7.33,9.84,10.5,9.91,0,0-10,8.2-19.5,4.2,0,0,8,12.48,37.75,13.24,0,0-5.75,4.76-9.75,4.38,0,0,29.25-.85,35.25-1.11s31-2.76,35.75-16v8.5s7.5-7,6.5-20.61c0,0,4.25,6.86,3.75,10.11,0,0,2.25-23.33-6.75-29.67S741.11,479.65,738.12,480.17Z" transform="translate(10.5 18.59)"/><path class="cls-23" d="M534.12,426.63s18.86,24.94,16.19,39,.26,17.32.26,17.32-11.26-7.5-9.26-17.12c0,0-2.25,8.25-.5,11.37,0,0-2.5-2.12-2.5-3.37,0,0-.13,12.37,7.5,18,0,0-11.75.16-15-11.67a8.79,8.79,0,0,0,.58,6.34s-4.83-10.67-4.46-20.42c0,0-2.25,3-1.62,5.75,0,0,.5-15.38,2.37-23.13s-2.48-3.5-2.48-3.5S527.18,430.47,534.12,426.63Z" transform="translate(10.5 18.59)"/><g class="cls-24"><path class="cls-18" d="M565.81,490.8l.82,2.89C566.21,491.93,565.81,490.8,565.81,490.8Z" transform="translate(10.5 18.59)"/><path class="cls-18" d="M639.31,471.3c-13.75-11.75-18.25-.75-21-20.75s-7.25-9.75-15.25-5.93-22.75-17.82-30.5-12.07,7.75,31,0,23.25-6.75,35-6.75,35,17.5,33.25,48.75,33.25c20.5,0,30.24-10,34.52-16.89.91-1.8,1.74-3.45,2.38-4.66v0C654.18,497.31,653.06,483.05,639.31,471.3Z" transform="translate(10.5 18.59)"/></g><path class="cls-21" d="M532.1,414c7.92.55,14.89-6.88,15.57-16.62A20,20,0,0,0,545,385.58c5,3,8.24,9.56,7.72,16.92-.69,9.73-7.66,17.17-15.58,16.61-4.31-.31-8-2.93-10.36-6.81A12.1,12.1,0,0,0,532.1,414Z" transform="translate(10.5 18.59)"/><path class="cls-21" d="M548,435.67c8.13-3.79,14.27-13.08,15.06-24.32a32.49,32.49,0,0,0-1.87-13.51A21.92,21.92,0,0,0,556.5,394a31.56,31.56,0,0,1,4.28,18.58C560.06,422.75,555,431.32,548,435.67Z" transform="translate(10.5 18.59)"/><path class="cls-21" d="M546.43,445.46a20.09,20.09,0,0,1-14-7.45,19.51,19.51,0,0,1-4.61-2c3.72,6.11,9.52,10.23,16.29,10.71a19.4,19.4,0,0,0,11.7-3A18.87,18.87,0,0,1,546.43,445.46Z" transform="translate(10.5 18.59)"/><path class="cls-21" d="M685.45,464.83a12.77,12.77,0,0,1-16-8.36,12.62,12.62,0,0,1-.27-6.66,12.77,12.77,0,1,0,23.7,8.87A12.72,12.72,0,0,1,685.45,464.83Z" transform="translate(10.5 18.59)"/><path class="cls-21" d="M559.38,372.14a12.75,12.75,0,0,1-16.28-15A12.77,12.77,0,1,0,566.8,366,12.74,12.74,0,0,1,559.38,372.14Z" transform="translate(10.5 18.59)"/></g><g id="Cat"><ellipse class="cls-11" cx="207.68" cy="574.72" rx="52.64" ry="3.98"/><path class="cls-25" d="M195.89,311.16l-4-3.26a3.39,3.39,0,0,0-3.72-.39l-1.39-1.15a3.38,3.38,0,0,0-5.37,1.53,4,4,0,0,0-2.24,1.35l-.66.8a4,4,0,0,0-.76,3.61l-.53,1a1.93,1.93,0,0,0,3.19,2.16l1.69,1.39a4,4,0,0,0,5.61-.55l.66-.8a3.85,3.85,0,0,0,.67-1.22,3.35,3.35,0,0,0,1.1-.34l1.39,1.15a3.4,3.4,0,1,0,4.32-5.24Z" transform="translate(10.5 18.59)"/><rect class="cls-11" x="188.83" y="313.48" width="3.88" height="8" rx="1.94" transform="translate(187.67 -34.06) rotate(28.9)"/><rect class="cls-11" x="177.68" y="309.61" width="11.92" height="9.02" rx="3.99" transform="translate(251.97 -26.52) rotate(39.46)"/><rect class="cls-18" x="193.55" y="331.14" width="4.58" height="16.07" rx="2.29" transform="translate(-161.63 223.65) rotate(-39.97)"/><rect class="cls-19" x="184.98" y="321.67" width="7" height="16.07" rx="3.5" transform="translate(-143.78 184.76) rotate(-34.74)"/><ellipse class="cls-18" cx="201.19" cy="344.68" rx="3.24" ry="3.54" transform="translate(-187.27 373.77) rotate(-61.24)"/><path class="cls-4" d="M186.86,379.15a3.1,3.1,0,0,1-.43,0,4.51,4.51,0,0,1-4.06-4.9L183.71,360l-6.48-12.84a4.5,4.5,0,1,1,8-4.05l7.07,14a4.47,4.47,0,0,1,.46,2.44l-1.46,15.5A4.5,4.5,0,0,1,186.86,379.15Z" transform="translate(10.5 18.59)"/><path class="cls-11" d="M188.11,379.13a3.1,3.1,0,0,1-.43,0,4.5,4.5,0,0,1-4.06-4.9L185,360l-6.48-12.84a4.5,4.5,0,1,1,8-4.05l7.07,14a4.47,4.47,0,0,1,.46,2.44l-1.46,15.5A4.49,4.49,0,0,1,188.11,379.13Z" transform="translate(10.5 18.59)"/><path class="cls-4" d="M170.31,377.13A4.5,4.5,0,0,1,166.1,371l4.65-12.31V347.17a4.5,4.5,0,0,1,9,0v12.38a4.56,4.56,0,0,1-.29,1.59l-4.94,13.08A4.5,4.5,0,0,1,170.31,377.13Z" transform="translate(10.5 18.59)"/><path class="cls-11" d="M171.81,377.13A4.5,4.5,0,0,1,167.6,371l4.65-12.31V347.17a4.5,4.5,0,0,1,9,0v12.38a4.56,4.56,0,0,1-.29,1.59L176,374.22A4.5,4.5,0,0,1,171.81,377.13Z" transform="translate(10.5 18.59)"/><rect class="cls-11" x="185.29" y="287.53" width="3" height="85.53" transform="translate(-152.98 202.96) rotate(-37.89)"/><rect class="cls-6" x="193.23" y="358.59" width="54.29" height="30.42" rx="15.21" transform="matrix(0.63, 0.78, -0.78, 0.63, 383.26, -13.9)"/><polygon class="cls-26" points="210.71 395.33 207.88 400.66 223.54 390.5 222.88 393.5 237.54 383 237.54 385.79 244.71 377.66 240.54 377.66 249.88 375.33 236.27 389.66 235.38 388.16 220.88 397.33 220.21 395.33 206.25 402.66 210.71 395.33"/><polygon class="cls-26" points="222.21 407.98 219.31 415 235.04 405.33 235.04 407 246.38 399 243.88 398.52 255.38 390.16 249.88 389 252.04 390.66 240.21 399 241.88 400.83 237.34 404.43 236.27 402.66 222.71 410.83 222.21 407.98"/><polygon class="cls-26" points="236.71 371.15 243.96 370.66 225.38 384.33 238.6 372.58 236.71 371.15"/><path class="cls-25" d="M191.46,340.81h1.81a4.33,4.33,0,0,1,4.33,4.33v14.42a9.08,9.08,0,0,1-9.08,9.08h0a9.08,9.08,0,0,1-9.08-9.08v-6.73a12,12,0,0,1,12-12Z"/><path class="cls-19" d="M192.46,341.25h1.81a4.33,4.33,0,0,1,4.33,4.33V360a9.08,9.08,0,0,1-9.08,9.08h0a9.08,9.08,0,0,1-9.08-9.08v-6.73a12,12,0,0,1,12-12Z"/><path class="cls-20" d="M195.28,342.43h1.41a3.37,3.37,0,0,1,3.37,3.37v15.86a7.06,7.06,0,0,1-7.06,7.06h0a7.06,7.06,0,0,1-7.06-7.06v-9.88a9.35,9.35,0,0,1,9.35-9.35Z"/><rect class="cls-21" x="185.81" y="330.94" width="4.58" height="16.07" rx="2.29" transform="translate(-185.51 409.94) rotate(-68.74)"/><rect class="cls-25" x="174.37" y="324.08" width="7" height="16.07" rx="3.5" transform="translate(-147.05 179.14) rotate(-34.74)"/><rect class="cls-19" x="175.49" y="323.89" width="7" height="16.07" rx="3.5" transform="translate(-146.74 179.75) rotate(-34.74)"/><ellipse class="cls-21" cx="205.94" cy="359.82" rx="3.54" ry="3.24"/><rect class="cls-21" x="191.25" y="337.45" width="5.79" height="7.92" rx="2.89"/><rect class="cls-25" x="179" y="308.11" width="12.14" height="16.62" rx="6.07" transform="translate(167.68 -30.49) rotate(25.96)"/><rect class="cls-21" x="179.57" y="308.01" width="12.14" height="16.62" rx="6.07" transform="translate(167.7 -30.75) rotate(25.96)"/><rect class="cls-18" x="180.43" y="309.86" width="11.78" height="10.92" rx="5.38" transform="translate(167.33 -31.15) rotate(25.96)"/><rect class="cls-11" x="185.95" y="309.44" width="11.92" height="6.79" rx="3.4" transform="translate(253.04 -32.07) rotate(39.46)"/><rect class="cls-11" x="180.83" y="307.9" width="11.92" height="6.79" rx="3.4" transform="translate(250.9 -29.17) rotate(39.46)"/><rect class="cls-11" x="178.32" y="309.93" width="3.88" height="8" rx="1.94" transform="translate(184.64 -29.43) rotate(28.9)"/><circle class="cls-21" cx="190.36" cy="335.01" r="1.83"/><rect class="cls-11" x="191.41" y="337.91" width="9.08" height="6.83" rx="3.31"/><path class="cls-16" d="M186.4,325.11h-1.86a2.5,2.5,0,0,1-2.5-2.5v-.15a2.47,2.47,0,0,1,.71-1.74,2.5,2.5,0,0,0-1.07,2v.15a2.51,2.51,0,0,0,2.51,2.5H186a2.48,2.48,0,0,0,1.79-.76A2.44,2.44,0,0,1,186.4,325.11Z" transform="translate(10.5 18.59)"/><rect class="cls-18" x="195.95" y="336.98" width="2.05" height="3.08" rx="1.03"/><rect class="cls-16" x="189.63" y="311.28" width="7.53" height="2.42" rx="1.21" transform="translate(253.16 -33.09) rotate(39.46)"/><rect class="cls-11" x="169.53" y="390.02" width="50.78" height="13.21" rx="6.6"/><rect class="cls-11" x="62.11" y="457.43" width="167.16" height="7" transform="translate(-327.19 484.9) rotate(-73.1)"/><rect class="cls-11" x="174.86" y="414.58" width="31.28" height="7"/><rect class="cls-11" x="171.03" y="428.56" width="31.28" height="7"/><rect class="cls-11" x="167.2" y="442.53" width="31.28" height="7"/><rect class="cls-11" x="163.36" y="456.51" width="31.28" height="7"/><rect class="cls-11" x="159.53" y="470.48" width="31.28" height="7"/><rect class="cls-11" x="155.7" y="484.46" width="31.28" height="7"/><rect class="cls-11" x="151.86" y="498.43" width="31.28" height="7"/><rect class="cls-11" x="146.11" y="512.4" width="31.28" height="7"/><rect class="cls-11" x="141.78" y="526.38" width="31.28" height="7"/><rect class="cls-11" x="137.25" y="540.35" width="31.28" height="7"/><ellipse class="cls-11" cx="155.04" cy="559.82" rx="43.56" ry="4.14"/><ellipse class="cls-11" cx="253.94" cy="561.64" rx="125.87" ry="8.76"/><path class="cls-4" d="M161,511.3a7.47,7.47,0,0,1-1.81-.22c-16.35-4.05-27.87-15.5-34.23-34-5.11-14.9-6.24-31.83-7.24-46.76-.39-5.91-.77-11.48-1.36-16.14a16.87,16.87,0,0,0-16.46-15h0c-19.63,0-24.91,37.4-25,37.77a7.5,7.5,0,1,1-14.88-1.88c.26-2.08,6.82-50.88,39.84-50.89h0c15.84,0,29.31,12.08,31.35,28.11.64,5.09,1,10.89,1.44,17,1.81,27.08,4.06,60.79,30.1,67.23A7.5,7.5,0,0,1,161,511.3Z" transform="translate(10.5 18.59)"/><path class="cls-27" d="M164.32,511.3a7.47,7.47,0,0,1-1.81-.22c-16.35-4.05-27.87-15.5-34.23-34-5.11-14.9-6.24-31.83-7.24-46.76-.39-5.91-.77-11.48-1.36-16.14a16.87,16.87,0,0,0-16.46-15h0c-19.63,0-24.91,37.4-25,37.77a7.5,7.5,0,1,1-14.88-1.88c.26-2.08,6.82-50.88,39.84-50.89h0c15.84,0,29.31,12.08,31.35,28.11.64,5.09,1,10.89,1.44,17,1.81,27.08,4.06,60.79,30.1,67.23a7.5,7.5,0,0,1-1.79,14.78Z" transform="translate(10.5 18.59)"/><path class="cls-27" d="M302.31,515.63a29.74,29.74,0,0,0-29.73,29.74H332A29.74,29.74,0,0,0,302.31,515.63Z" transform="translate(10.5 18.59)"/><path class="cls-4" d="M316.33,344.69h0a0,0,0,0,1,0,0V495.41a66.48,66.48,0,0,1-66.48,66.48H213.38a49.5,49.5,0,0,1-49.5-49.5V497.15A152.46,152.46,0,0,1,316.33,344.69Z"/><path class="cls-28" d="M320.27,344.69h0a0,0,0,0,1,0,0V495.41a66.48,66.48,0,0,1-66.48,66.48H217.31a49.5,49.5,0,0,1-49.5-49.5V497.15A152.46,152.46,0,0,1,320.27,344.69Z"/><path class="cls-27" d="M252.4,337.27a40,40,0,0,0,57.37,50.48V326.1h0A152,152,0,0,0,252.4,337.27Z" transform="translate(10.5 18.59)"/><circle class="cls-4" cx="295.31" cy="352.39" r="40"/><circle class="cls-28" cx="298.81" cy="352.39" r="40"/><path class="cls-4" d="M272.22,298.13l-37-5.5a2.59,2.59,0,0,0-2.38,4.22L250.39,318Z" transform="translate(10.5 18.59)"/><path class="cls-28" d="M277.26,298.13l-37-5.5a2.6,2.6,0,0,0-2.38,4.22L255.42,318Z" transform="translate(10.5 18.59)"/><path class="cls-27" d="M263.91,301l-17-2.52a1.82,1.82,0,0,0-1.67,3l9.44,11.4a4.37,4.37,0,0,0,6.29.44l5.23-4.74A4.37,4.37,0,0,0,263.91,301Z" transform="translate(10.5 18.59)"/><path class="cls-28" d="M301.5,298.13l37-5.5a2.59,2.59,0,0,1,2.38,4.22L323.33,318Z" transform="translate(10.5 18.59)"/><path class="cls-27" d="M314.85,301l17-2.52a1.83,1.83,0,0,1,1.68,3l-9.45,11.4a4.37,4.37,0,0,1-6.29.44l-5.22-4.74A4.37,4.37,0,0,1,314.85,301Z" transform="translate(10.5 18.59)"/><path class="cls-11" d="M273.12,324.49a9.31,9.31,0,0,1,9.09,7.28,9.71,9.71,0,0,0,.22-2,9.31,9.31,0,1,0-18.62,0,9.09,9.09,0,0,0,.23,2A9.31,9.31,0,0,1,273.12,324.49Z" transform="translate(10.5 18.59)"/><path class="cls-11" d="M307.35,324.49a9.31,9.31,0,0,1,9.08,7.28,9.09,9.09,0,0,0,.23-2,9.31,9.31,0,1,0-18.62,0,9.71,9.71,0,0,0,.22,2A9.31,9.31,0,0,1,307.35,324.49Z" transform="translate(10.5 18.59)"/><path class="cls-27" d="M287.9,348.55a5.81,5.81,0,0,1-1.12,3.44l-5.08,7a10.07,10.07,0,0,1-14.07,2.19l-2.37-1.73a6,6,0,0,1-1.45-1.53,6,6,0,0,0,2.45,4.78l2.37,1.73a10.07,10.07,0,0,0,14.07-2.19l5.08-7A5.81,5.81,0,0,0,287.9,348.55Z" transform="translate(10.5 18.59)"/><path class="cls-27" d="M288.36,348.55a5.74,5.74,0,0,0,1.11,3.44l5.09,7a10.06,10.06,0,0,0,14.06,2.19l2.37-1.73a6.22,6.22,0,0,0,1.46-1.53,6,6,0,0,1-2.46,4.78l-2.37,1.73a10.06,10.06,0,0,1-14.06-2.19l-5.09-7A5.81,5.81,0,0,1,288.36,348.55Z" transform="translate(10.5 18.59)"/><circle class="cls-27" cx="278.48" cy="367.14" r="1.58"/><circle class="cls-27" cx="287.73" cy="367.14" r="1.58"/><circle class="cls-27" cx="283.15" cy="373.8" r="1.58"/><circle class="cls-27" cx="309.44" cy="367.14" r="1.58"/><circle class="cls-27" cx="318.69" cy="367.14" r="1.58"/><circle class="cls-27" cx="314.1" cy="373.8" r="1.58"/><path class="cls-11" d="M289.8,337.32h1.78A2.38,2.38,0,0,1,294,339.7v7.44a1.47,1.47,0,0,1-1.47,1.47H285a2.38,2.38,0,0,1-2.38-2.38v-1.78a7.13,7.13,0,0,1,7.13-7.13Z" transform="translate(337.46 -84.82) rotate(45)"/><rect class="cls-27" x="302.31" y="403.23" width="17.96" height="152.46"/><path class="cls-27" d="M269.15,469.23h0a9.33,9.33,0,0,1,9.33,9.33v73a0,0,0,0,1,0,0h-9.33a0,0,0,0,1,0,0V469.23A0,0,0,0,1,269.15,469.23Z"/><path class="cls-27" d="M273.12,515.63a29.74,29.74,0,0,0-29.73,29.74h59.47A29.75,29.75,0,0,0,273.12,515.63Z" transform="translate(10.5 18.59)"/><path class="cls-28" d="M280.15,515.63c-12.55,0-22.72,13.32-22.72,29.74h45.43C302.86,529,292.69,515.63,280.15,515.63Z" transform="translate(10.5 18.59)"/><path class="cls-27" d="M173.14,442.72c5.61,11.78-12.33,21.91,3.67,20.91s12-29.66,24.67-13,37.12,6.31,27.56-12.84,8.1-52.49-2.23-47.16S194.7,406.45,192.48,398,167.48,430.81,173.14,442.72Z" transform="translate(10.5 18.59)"/><path class="cls-27" d="M174.86,486.09H190.6a37,37,0,0,1,37,37v40.77a0,0,0,0,1,0,0H174.86a0,0,0,0,1,0,0V486.09A0,0,0,0,1,174.86,486.09Z"/><path class="cls-4" d="M166.11,486.09h15.73a37,37,0,0,1,37,37v40.77a0,0,0,0,1,0,0H166.11a0,0,0,0,1,0,0V486.09A0,0,0,0,1,166.11,486.09Z"/><path class="cls-28" d="M168.53,486.09h15.73a37,37,0,0,1,37,37v40.77a0,0,0,0,1,0,0H168.53a0,0,0,0,1,0,0V486.09A0,0,0,0,1,168.53,486.09Z"/><path class="cls-28" d="M220.56,551.56h8.79a12.35,12.35,0,0,1,12.35,12.35v0a0,0,0,0,1,0,0h-33.5a0,0,0,0,1,0,0v0A12.35,12.35,0,0,1,220.56,551.56Z"/><path class="cls-27" d="M240.39,551.56h1a9.58,9.58,0,0,1,9.58,9.58v2.77a0,0,0,0,1,0,0H230.81a0,0,0,0,1,0,0v-2.77A9.58,9.58,0,0,1,240.39,551.56Z"/><path class="cls-4" d="M167.4,498.67h0A10.38,10.38,0,0,1,166,485.76l8.77-13.8,8.76,13.8a10.38,10.38,0,0,1-1.42,12.91h0A10.38,10.38,0,0,1,167.4,498.67Z" transform="translate(10.5 18.59)"/><path class="cls-17" d="M169.4,499.58h0A10.39,10.39,0,0,1,168,486.66l8.77-13.8,8.76,13.8a10.39,10.39,0,0,1-1.42,12.92h0A10.4,10.4,0,0,1,169.4,499.58Z" transform="translate(10.5 18.59)"/><path class="cls-4" d="M188.24,518.5h0a7,7,0,0,1-1-8.69l5.9-9.29,5.9,9.29a7,7,0,0,1-1,8.69h0A7,7,0,0,1,188.24,518.5Z" transform="translate(10.5 18.59)"/><path class="cls-17" d="M190.49,518.5h0a7,7,0,0,1-1-8.69l5.9-9.29,5.9,9.29a7,7,0,0,1-1,8.69h0A7,7,0,0,1,190.49,518.5Z" transform="translate(10.5 18.59)"/><path class="cls-4" d="M267,421.1h0a7,7,0,0,1-1-8.69l5.9-9.29,5.9,9.29a7,7,0,0,1-1,8.69h0A7,7,0,0,1,267,421.1Z" transform="translate(10.5 18.59)"/><path class="cls-17" d="M269.28,421.1h0a7,7,0,0,1-.95-8.69l5.9-9.29,5.9,9.29a7,7,0,0,1-1,8.69h0A7,7,0,0,1,269.28,421.1Z" transform="translate(10.5 18.59)"/><path class="cls-4" d="M237.53,443.6h0a11.85,11.85,0,0,1-1.63-14.73l10-15.74,10,15.74a11.85,11.85,0,0,1-1.62,14.73h0A11.85,11.85,0,0,1,237.53,443.6Z" transform="translate(10.5 18.59)"/><path class="cls-17" d="M240.53,443.82h0a11.83,11.83,0,0,1-1.63-14.72l10-15.74,10,15.74a11.83,11.83,0,0,1-1.62,14.72h0A11.84,11.84,0,0,1,240.53,443.82Z" transform="translate(10.5 18.59)"/><ellipse class="cls-4" cx="397.16" cy="569.87" rx="45.85" ry="4.14"/><ellipse class="cls-17" cx="392.41" cy="567.25" rx="45.85" ry="4.14"/><ellipse class="cls-4" cx="338.58" cy="572.73" rx="40.44" ry="4.66"/><ellipse class="cls-4" cx="301.69" cy="577.11" rx="44.88" ry="4.47"/><ellipse class="cls-17" cx="294.27" cy="576.48" rx="44.88" ry="4.47"/><ellipse class="cls-4" cx="370.94" cy="543.7" rx="17.88" ry="1.25"/><ellipse class="cls-4" cx="379.81" cy="546.48" rx="27.12" ry="2.33"/><ellipse class="cls-17" cx="366.27" cy="543.7" rx="17.88" ry="1.25"/><ellipse class="cls-17" cx="375.15" cy="546.48" rx="27.12" ry="2.33"/><ellipse class="cls-17" cx="334.71" cy="570.39" rx="40.44" ry="4.66"/><ellipse class="cls-4" cx="349.02" cy="568.49" rx="9.29" ry="1.24"/><ellipse class="cls-4" cx="331.19" cy="569.44" rx="5.04" ry="0.95"/><ellipse class="cls-17" cx="397.19" cy="580.95" rx="19.38" ry="1.94"/><ellipse class="cls-17" cx="370.13" cy="587.39" rx="7.69" ry="1.88"/><ellipse class="cls-17" cx="435.63" cy="579.49" rx="10.06" ry="1.47"/><ellipse class="cls-17" cx="388.9" cy="585.56" rx="4.5" ry="1"/><ellipse class="cls-11" cx="147.07" cy="571.77" rx="21.1" ry="3.28"/><ellipse class="cls-17" cx="212.17" cy="573.42" rx="52.64" ry="3.98"/><path class="cls-4" d="M216.17,556.46c-29.07,0-52.64-1.78-52.64-4,0-.83,3.31-1.59,9-2.23-10.4.73-16.91,1.77-16.91,2.92,0,2.2,23.57,4,52.64,4,18.17,0,34.19-.7,43.65-1.75C242.51,556.06,230,556.46,216.17,556.46Z" transform="translate(10.5 18.59)"/></g></g></g></g></svg>