<svg xmlns="http://www.w3.org/2000/svg" fill="#AD85A2"  viewBox="0 0 48 48"><title>07-pet bathing</title><g id="_07-pet_bathing" data-name="07-pet bathing"><path d="M33,48H15A15.006,15.006,0,0,1,.15,35.132,15.365,15.365,0,0,1,0,33V25a1,1,0,0,1,1-1H3v2H2v7a13.322,13.322,0,0,0,.131,1.853A13,13,0,0,0,15,46H33A13,13,0,0,0,45.87,34.848,13.348,13.348,0,0,0,46,33V26H45V24h2a1,1,0,0,1,1,1v8a15.417,15.417,0,0,1-.149,2.128A15,15,0,0,1,33,48Z"/><rect x="30" y="8" width="1" height="2"/><rect x="17" y="8" width="13" height="2"/><path d="M22,28H16a3,3,0,0,1-3-3V17h2v8a1,1,0,0,0,1,1h6Z"/><path d="M32,28H26V26h6a1,1,0,0,0,1-1V17h2v8A3,3,0,0,1,32,28Z"/><path d="M35,18H31a1,1,0,0,1-1-1V9a3,3,0,0,1,3-3,5.006,5.006,0,0,1,5,5v4A3,3,0,0,1,35,18Zm-3-2h3a1,1,0,0,0,1-1V11a3,3,0,0,0-3-3,1,1,0,0,0-1,1Z"/><path d="M17,18H13a3,3,0,0,1-3-3V11a5.006,5.006,0,0,1,5-5,3,3,0,0,1,3,3v8A1,1,0,0,1,17,18ZM15,8a3,3,0,0,0-3,3v4a1,1,0,0,0,1,1h3V9A1,1,0,0,0,15,8Z"/><path d="M46,48H43a1,1,0,0,1-1-1V43h2v3h1.069L46,32.93l2,.14-1,14A1,1,0,0,1,46,48Z"/><path d="M5,48H2a1,1,0,0,1-1-.929l-1-14,2-.14L2.931,46H4V43H6v4A1,1,0,0,1,5,48Z"/><path d="M25,31H23a3,3,0,0,1-3-3V23a1,1,0,0,1,1-1h6a1,1,0,0,1,1,1v5A3,3,0,0,1,25,31Zm-3-7v4a1,1,0,0,0,1,1h2a1,1,0,0,0,1-1V24Z"/><path d="M24,21a1,1,0,0,1-.707-.293l-2-2A1,1,0,0,1,22,17h4a1,1,0,0,1,.707,1.707l-2,2A1,1,0,0,1,24,21Z"/><rect x="23" y="19" width="2" height="7"/><path d="M41,34H39a3,3,0,0,1-3-3V23a1,1,0,0,1,1-1h4a3,3,0,0,1,3,3v6A3,3,0,0,1,41,34ZM38,24v7a1,1,0,0,0,1,1h2a1,1,0,0,0,1-1V25a1,1,0,0,0-1-1Z"/><rect x="39" y="30" width="2" height="3"/><path d="M9,34H7a3,3,0,0,1-3-3V25a3,3,0,0,1,3-3h4a1,1,0,0,1,1,1v8A3,3,0,0,1,9,34ZM7,24a1,1,0,0,0-1,1v6a1,1,0,0,0,1,1H9a1,1,0,0,0,1-1V24Z"/><rect x="7" y="30" width="2" height="3"/><path d="M43,13a4,4,0,1,1,4-4A4,4,0,0,1,43,13Zm0-6a2,2,0,1,0,2,2A2,2,0,0,0,43,7Z"/><path d="M7,6a3,3,0,1,1,3-3A3,3,0,0,1,7,6ZM7,2A1,1,0,1,0,8,3,1,1,0,0,0,7,2Z"/><path d="M.124,23.215A5.675,5.675,0,0,1,0,22a5.943,5.943,0,0,1,4.178-5.7A4.829,4.829,0,0,1,4,15a5.006,5.006,0,0,1,5-5v2a3,3,0,0,0-3,3,2.933,2.933,0,0,0,.438,1.526,1,1,0,0,1-.772,1.511A3.968,3.968,0,0,0,2,22a3.671,3.671,0,0,0,.077.785Z"/><path d="M45.919,23.2a4,4,0,0,0-5.747-2.736,1,1,0,0,1-1.4-1.22A3.8,3.8,0,0,0,39,18a3.974,3.974,0,0,0-.8-2.4l1.6-1.2A5.955,5.955,0,0,1,41,18c0,.03,0,.06,0,.089A5.714,5.714,0,0,1,42,18a6.011,6.011,0,0,1,5.88,4.8Z"/><path d="M16,45A12.711,12.711,0,0,1,5.143,39.515l1.712-1.033A10.725,10.725,0,0,0,16,43Z"/></g></svg>