<svg xmlns="http://www.w3.org/2000/svg" fill="#AD85A2"  viewBox="0 0 48 48"><title>05-pet salon</title><g id="_05-pet_salon" data-name="05-pet salon"><path d="M40,48H8a1,1,0,0,1-1-1V27H9V46H39V27h2V47A1,1,0,0,1,40,48Z"/><path d="M40,28a5,5,0,0,1-4-2,5,5,0,0,1-8,0,5,5,0,0,1-8,0,5,5,0,0,1-8,0,5,5,0,0,1-9-3,1.012,1.012,0,0,1,.071-.372l4-10A1,1,0,0,1,8,12h2v2H8.677L5.005,23.179A3,3,0,0,0,11,23a1,1,0,0,1,2,0,3,3,0,0,0,6,0,1,1,0,0,1,2,0,3,3,0,0,0,6,0,1,1,0,0,1,2,0,3,3,0,0,0,6,0,1,1,0,0,1,2,0A3,3,0,0,0,43,23.179L39.323,14H38V12h2a1,1,0,0,1,.929.628l4,10A1.012,1.012,0,0,1,45,23,5.006,5.006,0,0,1,40,28Z"/><path d="M38,19H10a1,1,0,0,1-1-1V1a1,1,0,0,1,1-1H38a1,1,0,0,1,1,1V18A1,1,0,0,1,38,19ZM11,17H37V2H11Z"/><path d="M31,9a3.015,3.015,0,0,1-3-3,3,3,0,1,1,3,3Zm0-4a1,1,0,0,0-1,1,.965.965,0,0,0,.287.694A.978.978,0,0,0,31,7a1,1,0,0,0,0-2Z"/><path d="M31,16a3,3,0,0,1-3-3,3.017,3.017,0,0,1,3-3,3,3,0,0,1,0,6Zm0-4a.957.957,0,0,0-.694.288A.978.978,0,0,0,30,13a1,1,0,1,0,1-1Z"/><path d="M26,9H16a1,1,0,0,1-1-1c0-2.757,2.691-5,6-5s6,2.243,6,5A1,1,0,0,1,26,9ZM17.229,7h7.542A4.1,4.1,0,0,0,21,5,4.1,4.1,0,0,0,17.229,7Z"/><path d="M21,16c-3.309,0-6-2.243-6-5a1,1,0,0,1,1-1H26a1,1,0,0,1,1,1C27,13.757,24.309,16,21,16Zm-3.771-4A4.1,4.1,0,0,0,21,14a4.1,4.1,0,0,0,3.771-2Z"/><rect x="27" y="7.172" width="2" height="5.657" transform="translate(1.13 22.728) rotate(-45)"/><rect x="25.172" y="8" width="5.657" height="2" transform="translate(1.837 22.435) rotate(-45)"/><path d="M31,40a3,3,0,1,1,3-3A3,3,0,0,1,31,40Zm0-4a1,1,0,1,0,1,1A1,1,0,0,0,31,36Z"/><path d="M17,40a3,3,0,1,1,3-3A3,3,0,0,1,17,40Zm0-4a1,1,0,1,0,1,1A1,1,0,0,0,17,36Z"/><path d="M27.33,44a1.042,1.042,0,0,1-.249-.031l-2.18-.56a3.692,3.692,0,0,0-1.806,0l-2.176.56A1.042,1.042,0,0,1,20.67,44,2.578,2.578,0,0,1,18,41.53a2.5,2.5,0,0,1,1.808-2.338A4.67,4.67,0,0,1,24,36a4.67,4.67,0,0,1,4.192,3.192A2.5,2.5,0,0,1,30,41.53,2.578,2.578,0,0,1,27.33,44ZM24,41.3a5.666,5.666,0,0,1,1.395.174l2.038.523c.338-.038.566-.262.566-.464,0-.222-.275-.47-.67-.47a1,1,0,0,1-1-1A2.59,2.59,0,0,0,24,38a2.59,2.59,0,0,0-2.33,2.06,1,1,0,0,1-1,1c-.4,0-.67.248-.67.47,0,.2.228.426.566.464l2.035-.523A5.712,5.712,0,0,1,24,41.3Z"/><path d="M27,36a3,3,0,1,1,3-3A3,3,0,0,1,27,36Zm0-4a1,1,0,1,0,1,1A1,1,0,0,0,27,32Z"/><path d="M21,36a3,3,0,1,1,3-3A3,3,0,0,1,21,36Zm0-4a1,1,0,1,0,1,1A1,1,0,0,0,21,32Z"/></g></svg>